<svg width="119" height="23" viewBox="0 0 119 23" fill="none" xmlns="http://www.w3.org/2000/svg">
<path d="M12.6741 14.1728C12.6741 14.815 12.6139 15.4372 12.4935 16.0392C12.3731 16.6413 12.1724 17.1832 11.8914 17.6649C11.6104 18.1265 11.2291 18.4978 10.7474 18.7788C10.2858 19.0598 9.70378 19.2003 9.00134 19.2003C8.33903 19.2003 7.76704 19.0598 7.28536 18.7788C6.82375 18.4777 6.43239 18.0964 6.11127 17.6348C5.81023 17.1531 5.58946 16.6112 5.44897 16.0091C5.30848 15.407 5.23824 14.805 5.23824 14.2029C5.23824 13.5606 5.29844 12.9485 5.41886 12.3665C5.55935 11.7644 5.77009 11.2325 6.05106 10.7709C6.35211 10.3093 6.74347 9.93801 7.22515 9.65703C7.70683 9.37605 8.29889 9.23557 9.00134 9.23557C9.70378 9.23557 10.2858 9.37605 10.7474 9.65703C11.209 9.93801 11.5803 10.3093 11.8613 10.7709C12.1623 11.2124 12.3731 11.7343 12.4935 12.3364C12.6139 12.9184 12.6741 13.5305 12.6741 14.1728ZM12.7343 20.0131V22H16.7985V0.505173H12.5236V8.33242H12.4634C11.9817 7.56977 11.3194 6.99778 10.4765 6.61645C9.65361 6.21505 8.78057 6.01435 7.85735 6.01435C6.71337 6.01435 5.70988 6.24516 4.84687 6.70676C3.98387 7.1483 3.26135 7.74036 2.67933 8.48295C2.11737 9.22553 1.68587 10.0885 1.38482 11.072C1.10384 12.0353 0.963354 13.0388 0.963354 14.0824C0.963354 15.1662 1.10384 16.2098 1.38482 17.2133C1.68587 18.2168 2.11737 19.1099 2.67933 19.8927C3.26135 20.6553 3.9939 21.2674 4.87698 21.7291C5.76005 22.1706 6.78361 22.3914 7.94767 22.3914C8.97123 22.3914 9.88441 22.2107 10.6872 21.8495C11.5101 21.4681 12.1724 20.856 12.6741 20.0131H12.7343ZM23.8228 14.233C23.8228 13.6108 23.883 12.9987 24.0034 12.3966C24.1238 11.7945 24.3245 11.2626 24.6055 10.801C24.9065 10.3394 25.2979 9.96812 25.7796 9.68714C26.2613 9.38609 26.8634 9.23557 27.5859 9.23557C28.3084 9.23557 28.9105 9.38609 29.3922 9.68714C29.8939 9.96812 30.2853 10.3394 30.5662 10.801C30.8673 11.2626 31.078 11.7945 31.1984 12.3966C31.3189 12.9987 31.3791 13.6108 31.3791 14.233C31.3791 14.8551 31.3189 15.4673 31.1984 16.0694C31.078 16.6514 30.8673 17.1832 30.5662 17.6649C30.2853 18.1265 29.8939 18.4978 29.3922 18.7788C28.9105 19.0598 28.3084 19.2003 27.5859 19.2003C26.8634 19.2003 26.2613 19.0598 25.7796 18.7788C25.2979 18.4978 24.9065 18.1265 24.6055 17.6649C24.3245 17.1832 24.1238 16.6514 24.0034 16.0694C23.883 15.4673 23.8228 14.8551 23.8228 14.233ZM19.5479 14.233C19.5479 15.4773 19.7386 16.6012 20.1199 17.6047C20.5012 18.6082 21.0431 19.4712 21.7455 20.1937C22.448 20.8962 23.2909 21.438 24.2743 21.8194C25.2578 22.2007 26.3616 22.3914 27.5859 22.3914C28.8101 22.3914 29.914 22.2007 30.8974 21.8194C31.9009 21.438 32.7539 20.8962 33.4563 20.1937C34.1588 19.4712 34.7006 18.6082 35.082 17.6047C35.4633 16.6012 35.654 15.4773 35.654 14.233C35.654 12.9886 35.4633 11.8647 35.082 10.8612C34.7006 9.83766 34.1588 8.97466 33.4563 8.27221C32.7539 7.5497 31.9009 6.99778 30.8974 6.61645C29.914 6.21505 28.8101 6.01435 27.5859 6.01435C26.3616 6.01435 25.2578 6.21505 24.2743 6.61645C23.2909 6.99778 22.448 7.5497 21.7455 8.27221C21.0431 8.97466 20.5012 9.83766 20.1199 10.8612C19.7386 11.8647 19.5479 12.9886 19.5479 14.233ZM43.8523 6.43582V1.76957H39.5775V6.43582H36.9884V9.29577H39.5775V18.4777C39.5775 19.2605 39.7079 19.8927 39.9688 20.3743C40.2297 20.856 40.581 21.2273 41.0225 21.4882C41.4841 21.7491 42.0059 21.9197 42.5879 22C43.19 22.1003 43.8222 22.1505 44.4845 22.1505C44.906 22.1505 45.3375 22.1405 45.779 22.1204C46.2206 22.1003 46.622 22.0602 46.9832 22V18.6885C46.7825 18.7286 46.5718 18.7587 46.351 18.7788C46.1303 18.7989 45.8995 18.8089 45.6586 18.8089C44.9361 18.8089 44.4544 18.6885 44.2136 18.4476C43.9728 18.2068 43.8523 17.7251 43.8523 17.0026V9.29577H46.9832V6.43582H43.8523ZM49.9504 9.29577V22H54.2253V9.29577H57.1756V6.43582H54.2253V5.50257C54.2253 4.86033 54.3457 4.40876 54.5866 4.14785C54.8475 3.86688 55.269 3.72639 55.851 3.72639C56.3929 3.72639 56.9147 3.75649 57.4164 3.8167V0.625593C57.0552 0.605523 56.6839 0.585454 56.3026 0.565384C55.9212 0.525243 55.5399 0.505173 55.1586 0.505173C53.4125 0.505173 52.108 0.946711 51.245 1.82979C50.3819 2.71286 49.9504 3.84681 49.9504 5.23163V6.43582H47.3915V9.29577H49.9504ZM69.5188 12.5471H62.5646C62.5847 12.246 62.6449 11.9049 62.7452 11.5235C62.8656 11.1422 63.0563 10.7809 63.3172 10.4398C63.5982 10.0986 63.9594 9.81759 64.401 9.59682C64.8626 9.35598 65.4346 9.23557 66.117 9.23557C67.1606 9.23557 67.9333 9.51654 68.435 10.0785C68.9568 10.6405 69.3181 11.4633 69.5188 12.5471ZM62.5646 15.2565H73.7937C73.874 14.0523 73.7736 12.8983 73.4926 11.7945C73.2117 10.6906 72.75 9.70721 72.1078 8.8442C71.4856 7.9812 70.6829 7.29882 69.6994 6.79708C68.716 6.27526 67.562 6.01435 66.2374 6.01435C65.0533 6.01435 63.9695 6.22509 62.9861 6.64655C62.0227 7.06802 61.1898 7.65005 60.4874 8.39263C59.7849 9.11515 59.243 9.97815 58.8617 10.9816C58.4804 11.9851 58.2897 13.0689 58.2897 14.233C58.2897 15.4372 58.4703 16.541 58.8316 17.5445C59.2129 18.548 59.7448 19.411 60.4272 20.1335C61.1095 20.856 61.9424 21.418 62.9259 21.8194C63.9093 22.2007 65.0131 22.3914 66.2374 22.3914C68.0035 22.3914 69.5088 21.99 70.7531 21.1872C71.9974 20.3844 72.9206 19.0497 73.5227 17.1832H69.7596C69.6192 17.6649 69.2378 18.1265 68.6157 18.5681C67.9935 18.9895 67.2509 19.2003 66.3879 19.2003C65.1837 19.2003 64.2605 18.8892 63.6183 18.267C62.976 17.6448 62.6248 16.6413 62.5646 15.2565ZM81.7479 6.43582V1.76957H77.473V6.43582H74.884V9.29577H77.473V18.4777C77.473 19.2605 77.6035 19.8927 77.8644 20.3743C78.1253 20.856 78.4765 21.2273 78.9181 21.4882C79.3797 21.7491 79.9015 21.9197 80.4835 22C81.0856 22.1003 81.7178 22.1505 82.3801 22.1505C82.8016 22.1505 83.2331 22.1405 83.6746 22.1204C84.1162 22.1003 84.5176 22.0602 84.8788 22V18.6885C84.6781 18.7286 84.4674 18.7587 84.2466 18.7788C84.0259 18.7989 83.7951 18.8089 83.5542 18.8089C82.8317 18.8089 82.35 18.6885 82.1092 18.4476C81.8683 18.2068 81.7479 17.7251 81.7479 17.0026V9.29577H84.8788V6.43582H81.7479ZM97.5097 11.9149H101.694C101.634 10.9114 101.393 10.0484 100.972 9.32588C100.55 8.58329 99.9983 7.97116 99.316 7.48949C98.6537 6.98774 97.891 6.61645 97.028 6.37561C96.1851 6.13477 95.302 6.01435 94.3788 6.01435C93.1144 6.01435 91.9905 6.22509 91.007 6.64655C90.0236 7.06802 89.1907 7.66008 88.5083 8.42274C87.826 9.16532 87.3041 10.0584 86.9429 11.1021C86.6017 12.1256 86.4311 13.2395 86.4311 14.4437C86.4311 15.6077 86.6218 16.6815 87.0031 17.6649C87.3844 18.6283 87.9163 19.4612 88.5987 20.1636C89.281 20.8661 90.1039 21.418 91.0672 21.8194C92.0507 22.2007 93.1244 22.3914 94.2885 22.3914C96.3557 22.3914 98.0516 21.8495 99.3762 20.7657C100.701 19.6819 101.504 18.1064 101.785 16.0392H97.6602C97.5197 17.0026 97.1685 17.7753 96.6065 18.3573C96.0646 18.9193 95.2819 19.2003 94.2584 19.2003C93.596 19.2003 93.0341 19.0497 92.5725 18.7487C92.1109 18.4476 91.7396 18.0663 91.4586 17.6047C91.1977 17.123 91.007 16.5912 90.8866 16.0091C90.7662 15.4271 90.706 14.8551 90.706 14.2932C90.706 13.7111 90.7662 13.1291 90.8866 12.5471C91.007 11.945 91.2077 11.4031 91.4887 10.9214C91.7898 10.4197 92.1711 10.0183 92.6327 9.71724C93.0943 9.39612 93.6663 9.23557 94.3487 9.23557C96.175 9.23557 97.2287 10.1287 97.5097 11.9149ZM104.2 0.505173V22H108.474V13.8416C108.474 12.2561 108.735 11.1221 109.257 10.4398C109.779 9.73731 110.622 9.38609 111.786 9.38609C112.809 9.38609 113.522 9.70721 113.923 10.3494C114.325 10.9716 114.525 11.9249 114.525 13.2094V22H118.8V12.4267C118.8 11.4633 118.71 10.5903 118.529 9.80756C118.369 9.00476 118.078 8.33242 117.656 7.79053C117.235 7.22858 116.653 6.79708 115.91 6.49603C115.188 6.17491 114.255 6.01435 113.111 6.01435C112.308 6.01435 111.485 6.22509 110.642 6.64655C109.799 7.04795 109.107 7.70022 108.565 8.60336H108.474V0.505173H104.2Z" fill="black"/>
</svg>
